<?xml version="1.0" standalone="no"?>
<!DOCTYPE svg PUBLIC "-//W3C//DTD SVG 20010904//EN"
 "http://www.w3.org/TR/2001/REC-SVG-20010904/DTD/svg10.dtd">
<svg version="1.0" xmlns="http://www.w3.org/2000/svg"
 width="472.000000pt" height="487.000000pt" viewBox="0 0 472.000000 487.000000"
 preserveAspectRatio="xMidYMid meet">

<g transform="translate(0.000000,487.000000) scale(0.100000,-0.100000)"
fill="#000000" stroke="none">
<path d="M2250 4207 c-19 -5 -50 -21 -68 -35 -18 -13 -40 -25 -47 -26 -8 -1
-18 -6 -22 -11 -4 -4 -2 -5 5 -1 22 13 13 0 -16 -21 -21 -15 -29 -17 -29 -8 0
8 4 12 8 9 4 -2 11 1 15 7 5 8 -1 10 -19 7 -15 -3 -28 0 -31 6 -3 7 -5 7 -5
-1 -1 -18 -31 -16 -31 2 0 14 -13 17 -87 18 -12 0 -22 3 -21 6 2 19 -4 22 -19
10 -15 -12 -16 -12 -8 1 10 20 2 11 -73 -73 -107 -119 -259 -316 -291 -375
-20 -37 -5 -41 62 -17 98 34 145 64 172 112 33 55 93 90 176 102 80 11 99 2
99 -45 0 -30 -4 -37 -31 -46 -59 -21 -21 -17 72 6 230 59 501 59 744 1 58 -14
-44 46 -120 70 -38 13 -92 32 -120 43 -27 11 -64 26 -81 32 -16 6 -38 24 -48
41 -20 35 -50 56 -88 63 -56 10 -61 24 -22 60 21 19 25 30 20 50 -7 29 -33 33
-96 13z"/>
<path d="M3606 3278 c3 -4 11 -5 19 -1 21 7 19 12 -4 10 -11 0 -18 -5 -15 -9z"/>
<path d="M3644 3262 c4 -7 2 -20 -6 -29 -9 -12 -9 -15 0 -9 11 7 17 -5 13 -27
-1 -5 3 -6 8 -2 6 3 15 -4 21 -15 6 -11 7 -20 3 -20 -4 0 2 -6 12 -14 11 -8
24 -12 29 -9 5 4 6 1 2 -6 -4 -6 -12 -9 -17 -6 -5 4 -9 1 -9 -4 0 -6 5 -11 10
-11 6 0 8 -11 6 -24 -2 -13 1 -34 7 -47 20 -40 36 -92 38 -129 2 -19 7 -41 12
-47 5 -7 6 -13 3 -13 -4 0 0 -7 8 -16 9 -8 16 -23 16 -33 0 -10 3 -21 7 -25
10 -9 33 -78 33 -97 0 -9 7 -19 15 -23 8 -3 15 -12 15 -20 0 -20 32 -86 41
-86 13 0 27 -58 31 -132 4 -61 12 -51 19 25 4 34 6 -26 5 -134 -1 -185 0 -197
18 -205 11 -5 22 -16 26 -24 24 -54 26 -55 82 -54 104 2 173 55 356 267 73 85
90 111 83 125 -11 21 -83 111 -212 263 -52 63 -112 137 -133 164 -84 112 -342
393 -351 383 -3 -3 15 -42 41 -87 l46 -82 -17 -64 c-11 -41 -15 -78 -11 -104
5 -33 4 -39 -9 -35 -8 4 -13 10 -10 14 8 13 -6 41 -17 34 -5 -3 -8 0 -6 7 1 8
-11 39 -28 69 -16 30 -40 73 -52 95 -12 22 -26 39 -31 38 -6 -2 -8 4 -5 12 4
8 -1 17 -10 21 -9 3 -14 9 -11 13 2 4 -11 29 -30 56 -34 48 -55 72 -41 47z
m57 -87 c7 -14 4 -12 -11 5 -11 14 -25 34 -31 45 -7 14 -4 12 11 -5 11 -14 25
-34 31 -45z m253 -441 c9 -24 7 -69 -3 -58 -12 13 -22 74 -12 74 5 0 12 -7 15
-16z m-17 -86 c-3 -8 -6 -5 -6 6 -1 11 2 17 5 13 3 -3 4 -12 1 -19z m10 -50
c-3 -8 -6 -5 -6 6 -1 11 2 17 5 13 3 -3 4 -12 1 -19z m10 -65 c-3 -10 -5 -4
-5 12 0 17 2 24 5 18 2 -7 2 -21 0 -30z"/>
<path d="M1066 3148 c-26 -17 -164 -149 -305 -292 -329 -333 -401 -411 -401
-432 0 -18 84 -137 119 -168 30 -27 26 -39 -22 -77 -71 -56 -110 -106 -103
-132 4 -12 52 -62 108 -112 55 -49 128 -115 162 -146 102 -95 271 -219 296
-219 17 0 11 41 -12 79 -12 20 -68 98 -125 174 -128 172 -147 206 -140 264 6
54 21 73 61 73 57 0 60 8 73 157 9 112 18 158 47 241 41 122 102 236 121 228
9 -3 22 20 40 72 15 42 55 132 90 200 38 72 59 122 51 122 -7 0 -34 -14 -60
-32z"/>
<path d="M3685 3129 c-4 -6 -5 -12 -2 -15 2 -3 7 2 10 11 7 17 1 20 -8 4z"/>
<path d="M3953 2290 c0 -36 2 -50 4 -32 2 17 2 47 0 65 -2 17 -4 3 -4 -33z"/>
<path d="M3876 1915 c-6 -24 10 -72 21 -62 2 3 0 14 -6 26 -8 14 -8 22 1 27 6
4 8 3 4 -4 -3 -6 -2 -13 4 -17 11 -7 12 0 4 33 -8 29 -20 28 -28 -3z"/>
<path d="M3740 1901 c0 -6 4 -13 10 -16 6 -3 7 1 4 9 -7 18 -14 21 -14 7z"/>
<path d="M3836 1878 c-7 -22 -7 -22 -16 -3 -7 17 -9 15 -9 -12 -1 -22 -6 -33
-16 -33 -8 0 -15 7 -15 15 0 8 -4 15 -10 15 -10 0 -14 -14 -10 -39 1 -9 -4
-12 -14 -8 -19 7 -20 3 -5 -25 8 -15 8 -19 0 -14 -14 9 -53 -3 -47 -13 3 -4
-1 -8 -8 -8 -8 0 -12 7 -9 16 2 9 -3 4 -12 -12 -9 -15 -13 -32 -10 -37 3 -6 2
-10 -4 -10 -6 0 -15 -10 -22 -21 -9 -17 -8 -20 3 -14 7 3 4 -1 -6 -9 -11 -9
-16 -16 -12 -16 4 0 0 -7 -8 -16 -9 -8 -13 -20 -10 -26 4 -6 3 -8 -2 -5 -6 3
-16 -3 -23 -15 -10 -16 -10 -19 1 -13 7 3 5 0 -4 -8 -9 -7 -38 -42 -64 -78
-106 -144 -296 -303 -470 -392 -72 -36 -238 -93 -331 -112 -108 -23 -298 -30
-421 -16 -324 35 -641 206 -858 461 -42 50 -81 90 -86 90 -5 0 -7 4 -3 9 3 5
0 13 -6 17 -8 4 -9 3 -5 -4 4 -7 3 -12 -2 -12 -16 0 -22 13 -12 25 7 9 5 17
-7 26 -16 13 -17 12 -5 -3 9 -11 10 -18 2 -23 -8 -5 -8 -11 1 -21 6 -8 8 -14
3 -14 -5 0 -1 -7 9 -14 11 -8 14 -17 8 -20 -5 -4 -12 -2 -16 4 -11 18 -25 10
-25 -15 0 -14 -4 -25 -10 -25 -5 0 -10 -7 -10 -15 0 -11 -7 -14 -26 -11 -15 3
-24 2 -20 -1 3 -3 1 -12 -4 -18 -11 -14 45 -92 62 -87 5 1 7 -2 3 -8 -8 -13
158 -179 240 -241 206 -155 447 -254 728 -299 93 -15 374 -7 482 14 335 65
631 232 838 471 88 102 170 222 161 237 -4 6 -3 8 3 5 15 -9 98 144 86 157 -4
3 -1 6 5 6 7 0 12 9 12 19 0 11 5 23 11 27 6 3 9 15 6 25 -3 10 0 17 7 16 7
-1 10 10 9 29 -2 18 3 37 12 44 11 9 12 17 3 36 -9 18 -14 21 -21 12 -6 -9 -7
-6 -4 10 3 12 2 22 -3 22 -4 0 -11 -10 -14 -22z m34 -34 c0 -8 -19 -13 -24 -6
-3 5 1 9 9 9 8 0 15 -2 15 -3z m-2635 -444 c-3 -5 -1 -20 5 -32 11 -22 11 -22
-10 1 -16 19 -18 26 -8 32 17 11 20 11 13 -1z"/>
<path d="M3723 1850 c-11 -16 -10 -18 2 -14 8 4 15 12 15 20 0 19 -3 18 -17
-6z"/>
</g>
</svg>
